<?xml version='1.0' encoding='UTF-8' standalone='no'?>
<!-- Created with Fritzing (https://fritzing.org/) -->
<svg xmlns="http://www.w3.org/2000/svg" baseProfile="tiny" height="2.91897in" version="1.2" viewBox="0 0 404.379 210.166" width="5.61638in" x="0in"  xmlns:svg="http://www.w3.org/2000/svg" y="0in">
 <g id="watermark" >
  <g >
   <g >
    <path d="M379.647,203.966c-0.604,0,-1.131,0.325,-1.422,0.809l-2.796,0l3.96,-4.071c0.146,-0.146,0.289,-0.322,0.428,-0.521c0.149,-0.222,0.228,-0.479,0.228,-0.768c0,-0.279,-0.097,-0.518,-0.287,-0.71c-0.19,-0.188,-0.444,-0.287,-0.754,-0.287l-4.636,0c-0.305,0,-0.555,0.06,-0.742,0.17c-0.219,0.13,-0.33,0.368,-0.33,0.707c0,0.329,0.111,0.562,0.33,0.692c0.188,0.111,0.438,0.168,0.742,0.168l3.148,0l-3.974,4.086c-0.146,0.147,-0.289,0.315,-0.425,0.504c-0.153,0.212,-0.23,0.472,-0.23,0.771c0,0.28,0.096,0.521,0.288,0.711c0.188,0.188,0.442,0.285,0.754,0.285l4.315,0c0.293,0.467,0.812,0.776,1.4,0.776c0.916,0,1.66,-0.744,1.66,-1.661C381.306,204.711,380.561,203.966,379.647,203.966zM379.647,206.229c-0.334,0,-0.604,-0.271,-0.604,-0.604c0,-0.333,0.27,-0.604,0.604,-0.604c0.332,0,0.604,0.271,0.604,0.604C380.25,205.96,379.979,206.229,379.647,206.229z" fill="#8C8C8C" />
    <path d="M362.704,193.924c-0.914,0,-1.659,0.745,-1.659,1.66c0,0.916,0.745,1.66,1.659,1.66s1.658,-0.744,1.658,-1.66C364.364,194.669,363.62,193.924,362.704,193.924zM362.705,196.187c-0.333,0,-0.604,-0.27,-0.604,-0.603s0.271,-0.603,0.604,-0.603c0.331,0,0.604,0.27,0.604,0.603S363.036,196.187,362.705,196.187z" fill="#8C8C8C" />
    <path d="M371.225,198.586c-0.193,-0.111,-0.439,-0.169,-0.732,-0.169l-1.465,0L369.028,195.895c0,-0.292,-0.057,-0.538,-0.166,-0.729C368.772,195.009,368.579,194.824,368.169,194.824c-0.34,0,-0.578,0.116,-0.709,0.342c-0.109,0.193,-0.167,0.438,-0.167,0.729l0,2.521l-0.481,0c-0.295,0,-0.539,0.06,-0.731,0.169c-0.228,0.129,-0.341,0.368,-0.341,0.708c0,0.412,0.185,0.603,0.341,0.692c0.192,0.111,0.438,0.168,0.731,0.168l0.481,0l0,4.362c0,0.277,0.026,0.533,0.081,0.768c0.056,0.246,0.154,0.464,0.298,0.645c0.146,0.186,0.345,0.332,0.595,0.436c0.241,0.098,0.555,0.146,0.93,0.146l0.896,0c0.292,0,0.539,-0.054,0.731,-0.166c0.154,-0.089,0.341,-0.281,0.341,-0.693c0,-0.338,-0.114,-0.578,-0.341,-0.709c-0.192,-0.109,-0.439,-0.168,-0.731,-0.168l-0.821,0c-0.138,0,-0.19,-0.019,-0.207,-0.024c-0.014,-0.034,-0.035,-0.103,-0.035,-0.231L369.03,200.154l1.465,0c0.295,0,0.541,-0.057,0.734,-0.168c0.152,-0.09,0.34,-0.28,0.34,-0.692C371.565,198.954,371.452,198.715,371.225,198.586z" fill="#8C8C8C" />
    <path d="M362.77,198.416l-1.191,0c-0.292,0,-0.538,0.059,-0.731,0.169c-0.226,0.129,-0.341,0.368,-0.341,0.708c0,0.412,0.188,0.604,0.341,0.691c0.193,0.113,0.439,0.168,0.731,0.168l0.544,0l0,5.362c0,0.293,0.057,0.539,0.167,0.73c0.131,0.227,0.367,0.341,0.708,0.341c0.411,0,0.604,-0.187,0.692,-0.341c0.111,-0.191,0.168,-0.438,0.168,-0.73L363.858,199.504c0,-0.386,-0.084,-0.656,-0.256,-0.83C363.427,198.502,363.157,198.416,362.77,198.416z" fill="#8C8C8C" />
    <path d="M358.935,198.586c-0.193,-0.111,-0.44,-0.169,-0.732,-0.169l-0.604,0c-0.25,0,-0.498,0.063,-0.734,0.187c-0.226,0.119,-0.433,0.271,-0.616,0.453l-0.644,0.604l0,-0.247c0,-0.291,-0.055,-0.538,-0.168,-0.729c-0.128,-0.228,-0.368,-0.34,-0.707,-0.34c-0.41,0,-0.604,0.184,-0.693,0.34c-0.11,0.191,-0.167,0.438,-0.167,0.729l0,4.801c-0.475,0.293,-0.791,0.816,-0.791,1.412c0,0.917,0.745,1.661,1.658,1.661c0.916,0,1.66,-0.744,1.66,-1.661c0,-0.596,-0.317,-1.119,-0.792,-1.412l0,-2.21l1.738,-1.564c0.1,-0.09,0.199,-0.164,0.297,-0.217c0.084,-0.045,0.174,-0.067,0.274,-0.067l0.288,0c0.292,0,0.539,-0.056,0.732,-0.169c0.155,-0.088,0.339,-0.279,0.339,-0.691C359.275,198.954,359.16,198.715,358.935,198.586zM354.736,206.229c-0.332,0,-0.603,-0.271,-0.603,-0.604c0,-0.333,0.271,-0.604,0.603,-0.604c0.333,0,0.604,0.271,0.604,0.604C355.34,205.96,355.069,206.229,354.736,206.229z" fill="#8C8C8C" />
    <path d="M352.219,195.067c-0.193,-0.111,-0.44,-0.167,-0.731,-0.167l-0.59,0c-0.2,0,-0.389,0.004,-0.562,0.016c-0.176,0.009,-0.345,0.035,-0.506,0.07c-0.168,0.041,-0.336,0.109,-0.496,0.202c-0.158,0.093,-0.319,0.222,-0.48,0.382c-0.334,0.314,-0.554,0.656,-0.652,1.017c-0.094,0.348,-0.143,0.735,-0.143,1.151l0,0.678l-0.483,0c-0.292,0,-0.539,0.059,-0.73,0.169c-0.227,0.13,-0.342,0.369,-0.342,0.708c0,0.412,0.185,0.604,0.341,0.693c0.191,0.111,0.438,0.166,0.73,0.166l0.483,0l0,5.362c0,0.293,0.057,0.539,0.167,0.73c0.13,0.227,0.367,0.341,0.708,0.341c0.411,0,0.603,-0.187,0.692,-0.341c0.111,-0.191,0.168,-0.438,0.168,-0.73l0,-5.36l0.92,0c0.293,0,0.54,-0.057,0.732,-0.168c0.155,-0.09,0.34,-0.28,0.34,-0.692c0,-0.34,-0.114,-0.579,-0.34,-0.708c-0.189,-0.111,-0.436,-0.17,-0.729,-0.17l-0.92,0l0,-0.678c0,-0.218,0.019,-0.41,0.056,-0.571c0.032,-0.141,0.103,-0.261,0.218,-0.367l0.002,-0.004l0.002,-0.002c0.082,-0.082,0.176,-0.126,0.29,-0.136c0.15,-0.015,0.339,-0.022,0.564,-0.022l0.56,0c0.291,0,0.539,-0.058,0.731,-0.168c0.154,-0.088,0.339,-0.281,0.339,-0.693C352.559,195.436,352.444,195.197,352.219,195.067z" fill="#8C8C8C" />
    <path d="M404.212,198.684c-0.089,-0.156,-0.282,-0.34,-0.693,-0.34c-0.339,0,-0.578,0.113,-0.707,0.34c-0.078,0.133,-0.127,0.293,-0.152,0.477l-0.021,-0.021c-0.216,-0.236,-0.466,-0.42,-0.747,-0.539c-0.277,-0.119,-0.563,-0.183,-0.849,-0.183l-0.709,0c-0.249,0,-0.466,0.015,-0.64,0.041c-0.182,0.026,-0.352,0.074,-0.51,0.14c-0.158,0.066,-0.313,0.15,-0.459,0.254c-0.139,0.097,-0.303,0.226,-0.486,0.377c-0.188,0.156,-0.342,0.302,-0.463,0.434c-0.127,0.141,-0.23,0.293,-0.306,0.455c-0.069,0.16,-0.122,0.337,-0.147,0.523c-0.026,0.178,-0.041,0.391,-0.041,0.631l0,2.386c0,0.24,0.015,0.451,0.041,0.631c0.025,0.188,0.078,0.361,0.147,0.521c0.074,0.164,0.179,0.318,0.306,0.457c0.119,0.129,0.274,0.274,0.463,0.433c0.186,0.153,0.35,0.28,0.486,0.379c0.146,0.103,0.299,0.188,0.459,0.254c0.158,0.065,0.329,0.112,0.51,0.14c0.174,0.026,0.389,0.039,0.64,0.039l0.709,0c0.298,0,0.591,-0.066,0.87,-0.199c0.244,-0.114,0.492,-0.291,0.73,-0.523l0,1.434c0,0.18,-0.025,0.334,-0.072,0.465c-0.043,0.119,-0.159,0.258,-0.344,0.406c-0.154,0.127,-0.309,0.217,-0.457,0.264c-0.15,0.049,-0.341,0.074,-0.563,0.074l-2.203,0c-0.293,0,-0.538,0.055,-0.732,0.166c-0.152,0.088,-0.34,0.282,-0.34,0.692c0,0.341,0.115,0.579,0.34,0.71c0.194,0.109,0.439,0.167,0.732,0.167l2.326,0c0.247,0,0.463,-0.015,0.638,-0.041c0.179,-0.026,0.351,-0.073,0.513,-0.14c0.153,-0.064,0.31,-0.15,0.455,-0.254c0.143,-0.101,0.305,-0.227,0.487,-0.379c0.185,-0.153,0.343,-0.299,0.463,-0.431c0.128,-0.141,0.229,-0.294,0.304,-0.456c0.071,-0.162,0.123,-0.338,0.148,-0.523c0.025,-0.182,0.041,-0.393,0.041,-0.631l0,-7.898C404.379,199.122,404.325,198.875,404.212,198.684zM402.643,203.144c0,0.188,-0.062,0.35,-0.188,0.49c-0.15,0.172,-0.394,0.403,-0.716,0.686l-0.002,0.003l-0.002,0.004c-0.139,0.13,-0.291,0.237,-0.453,0.325c-0.148,0.082,-0.325,0.121,-0.526,0.121L400.455,204.773c-0.222,0,-0.41,-0.021,-0.563,-0.072c-0.148,-0.049,-0.301,-0.137,-0.453,-0.264c-0.231,-0.186,-0.315,-0.322,-0.346,-0.404c-0.049,-0.131,-0.072,-0.285,-0.072,-0.465l0,-2.206c0,-0.18,0.023,-0.336,0.072,-0.467c0.029,-0.082,0.113,-0.217,0.346,-0.403c0.152,-0.127,0.305,-0.216,0.453,-0.265c0.153,-0.049,0.342,-0.072,0.563,-0.072l0.301,0c0.212,0,0.388,0.037,0.526,0.113c0.152,0.082,0.308,0.191,0.457,0.324c0.322,0.293,0.564,0.529,0.716,0.7c0.128,0.146,0.188,0.304,0.188,0.492L402.643,203.144z" fill="#8C8C8C" />
    <path d="M384.233,193.924c-0.914,0,-1.66,0.745,-1.66,1.66c0,0.916,0.746,1.66,1.66,1.66s1.66,-0.744,1.66,-1.66C385.893,194.669,385.147,193.924,384.233,193.924zM384.233,196.187c-0.332,0,-0.604,-0.27,-0.604,-0.603s0.271,-0.603,0.604,-0.603s0.604,0.27,0.604,0.603C384.837,195.917,384.565,196.187,384.233,196.187z" fill="#8C8C8C" />
    <path d="M394.919,204.192l-0.107,-3.419c-0.011,-0.178,-0.021,-0.338,-0.031,-0.489c-0.01,-0.162,-0.037,-0.322,-0.082,-0.476c-0.045,-0.158,-0.11,-0.309,-0.198,-0.453c-0.093,-0.146,-0.216,-0.289,-0.37,-0.42c-0.225,-0.192,-0.443,-0.334,-0.646,-0.416c-0.207,-0.084,-0.461,-0.127,-0.754,-0.127l-1.012,0c-0.259,0,-0.501,0.058,-0.716,0.164c-0.197,0.098,-0.39,0.203,-0.572,0.315l-0.003,0.002l-0.003,0.003l-0.837,0.555l0,-0.041c0,-0.291,-0.057,-0.539,-0.168,-0.733c-0.129,-0.226,-0.367,-0.339,-0.707,-0.339c-0.411,0,-0.604,0.185,-0.693,0.339c-0.109,0.194,-0.168,0.438,-0.168,0.733l0,6.099c0,0.295,0.059,0.539,0.168,0.734c0.09,0.153,0.282,0.338,0.693,0.338c0.34,0,0.578,-0.114,0.707,-0.338c0.111,-0.195,0.168,-0.439,0.168,-0.734L389.588,201.454l1.953,-1.215c0.04,-0.024,0.082,-0.048,0.121,-0.063c0.031,-0.016,0.07,-0.025,0.115,-0.031c0.049,-0.012,0.117,-0.016,0.195,-0.016l0.362,0c0.188,0,0.334,0.021,0.435,0.059c0.082,0.029,0.143,0.076,0.18,0.143c0.05,0.078,0.08,0.18,0.098,0.303c0.02,0.139,0.034,0.309,0.045,0.504l0.096,3.097c-0.457,0.297,-0.762,0.811,-0.762,1.394c0,0.917,0.746,1.661,1.66,1.661c0.916,0,1.66,-0.744,1.66,-1.661C395.745,205.017,395.412,204.479,394.919,204.192zM394.085,206.229c-0.334,0,-0.602,-0.271,-0.602,-0.604c0,-0.333,0.268,-0.604,0.602,-0.604c0.333,0,0.604,0.271,0.604,0.604C394.69,205.96,394.418,206.229,394.085,206.229z" fill="#8C8C8C" />
    <path d="M384.296,198.416l-1.193,0c-0.293,0,-0.539,0.059,-0.731,0.169c-0.226,0.129,-0.341,0.368,-0.341,0.708c0,0.412,0.186,0.604,0.341,0.691c0.192,0.113,0.438,0.168,0.731,0.168l0.545,0l0,5.362c0,0.293,0.055,0.539,0.168,0.73c0.127,0.227,0.365,0.341,0.707,0.341c0.41,0,0.604,-0.187,0.691,-0.341c0.111,-0.191,0.17,-0.438,0.17,-0.73L385.384,199.504c0,-0.386,-0.085,-0.656,-0.259,-0.83C384.953,198.502,384.68,198.416,384.296,198.416z" fill="#8C8C8C" />
   </g>
  </g>
 </g>
 <g partID="58500">
  <g transform="translate(394.817,84.664)">
   <g transform="matrix(0,1,-1,0,0,0)">
    <g id="breadboard" >
     <path d="M28.8001,33.6634L28.8001,42.2681" fill="none" gorn="0.0.2.0.0.0" id="path3767" stroke="#646464" stroke-dasharray="none" stroke-linecap="round" stroke-linejoin="miter" stroke-miterlimit="4" stroke-opacity="1" stroke-width="1.44" />
     <path d="M7.2,33.8386L7.2,42.2754" fill="none" gorn="0.0.2.0.0.1" id="path3769" stroke="#646464" stroke-dasharray="none" stroke-linecap="round" stroke-linejoin="miter" stroke-miterlimit="4" stroke-opacity="1" stroke-width="1.44" />
     <path d="m37.1427,18.6037a18.5405,18.539,0,1,1,-37.0809,0,18.5405,18.539,0,1,1,37.0809,0z" fill="#333333" fill-opacity="1" gorn="0.0.2.0.0.2.0" id="path2989" stroke="#fffeff" stroke-opacity="1" stroke-width="0.123598" />
     <path d="m24.8816,2.28194c0.265442,0.0949704,-0.186519,-0.268262,0,0zm-0.388711,0.556707c-0.123064,-0.0594656,-0.776431,-0.00635184,-0.595465,0.187321,0.351653,-0.128633,1.10501,-0.0288992,1.45618,0.146671,-0.27303,-0.166067,-3.04547,-1.75764,-3.04547,-1.75764zm0.860716,0.334024c-0.68485,-0.00635184,0.345167,0.819571,0.699915,1.19204,0.328632,0.442817,1.11791,0.589377,1.49729,0.914597,0.234376,0.774705,0.827615,0.744901,1.13395,1.32963,0.35135,0.570125,1.45802,1.34988,1.75976,1.9853,0.270667,0.634878,0.859019,1.36831,1.20028,1.90293,0.407085,0.528213,0.456733,0.919186,0.758163,1.61816,0.714716,0.940495,2.06069,4.11792,2.24973,4.77257,0.117142,0.567107,1.13103,5.14069,1.2942,4.38372,0.146626,-0.694851,0.210775,-6.38785,0.125543,-7.05393,-0.126564,-0.679267,-1.2169,-3.30707,-1.48072,-3.84277C34.2607,9.77975,33.0425,8.38296,32.7283,7.76991,32.3703,7.01558,31.3878,6.51689,30.9381,5.91299,30.4706,5.30549,29.6683,4.99533,29.1832,4.42494,28.7552,4.02242,27.9724,3.69423,27.5135,3.39784c-0.496004,-0.293136,-0.805804,-0.595935,-1.31084,-0.842118,-0.162695,-0.0516057,-0.695352,0.551753,-0.849012,0.61695z" fill="#ffffff" gorn="0.0.2.0.0.3.0" id="path3777" stroke="#000000" stroke-dasharray="none" stroke-linecap="round" stroke-linejoin="round" stroke-miterlimit="4" stroke-opacity="1" stroke-width="0.265736" />
     <path d="m23.6621,18.5863a4.98275,4.98236,0,1,1,-9.96549,0,4.98275,4.98236,0,1,1,9.96549,0z" fill="#000000" fill-opacity="1" gorn="0.0.2.0.0.4.0" id="path2991" opacity="0.54867255" stroke="#757f7d" stroke-opacity="1" stroke-width="0.66434" />
     <path d="m7.44649,31.5972c-0.200456,-0.0743911,0.140854,0.210131,0,0zm0.293545,-0.436045c0.0929347,0.0466041,0.304401,-0.0922867,0.16774,-0.244182,-0.265559,0.10075,-0.552538,0.12009,-0.817732,-0.0173873,0.206186,0.130079,0.422815,0.326053,0.649992,0.261634zm-0.649992,-0.261625c-0.344236,0.0047664,-0.589593,-0.447002,-0.85749,-0.738748,-0.248175,-0.346847,-0.515284,-0.656568,-0.801784,-0.911302,-0.317968,-0.265667,-0.624996,-0.583455,-0.856333,-1.04145,-0.265331,-0.446557,-0.443196,-1.00857,-0.671068,-1.5063,-0.204401,-0.497273,-0.460752,-0.925537,-0.718461,-1.34428,-0.30742,-0.413736,-0.626855,-0.817443,-0.854488,-1.36492,-0.210806,-0.444246,-0.381427,-0.934913,-0.524187,-1.44768,-0.0884628,-0.444198,-0.525198,-0.810059,-0.648419,-0.217164,-0.110729,0.544258,0.122769,1.05591,0.187134,1.57763,0.0955783,0.532039,0.355079,0.884609,0.554324,1.3042,0.24999,0.466183,0.371088,1.07291,0.608413,1.55308,0.270313,0.590846,0.636359,1.03017,0.975948,1.5032,0.353052,0.475836,0.723976,0.913691,1.09031,1.36047,0.323195,0.315279,0.679424,0.523599,1.02601,0.755754,0.37457,0.229598,0.749493,0.466777,1.13088,0.659608,0.122863,0.0404114,0.243173,-0.0910411,0.359212,-0.142106z" fill="#ffffff" gorn="0.0.2.0.0.5.0" id="path3777-4" stroke="#000000" stroke-linecap="butt" stroke-linejoin="miter" stroke-opacity="1" stroke-width="0.432718" />
     <rect fill="#000000" fill-opacity="1" gorn="0.0.2.0.0.6.0" height="3.01176" id="rect3842" stroke="#000000" stroke-dasharray="none" stroke-linecap="round" stroke-linejoin="round" stroke-miterlimit="4" stroke-opacity="1" stroke-width="1.33665" width="14.8396" x="11.3894"  y="27.147"/>
     <rect fill="none" gorn="0.0.4" height="0.72" id="connector0pin" stroke-width="0.749966" width="0.72" x="6.8643"  y="41.9257"/>
     <rect fill="none" gorn="0.0.3" height="0.71994" id="connector1pin" stroke-width="0.207495" width="0.72" x="28.44"  y="41.9258"/>
    </g>
   </g>
  </g>
 </g>
 <g partID="62720">
  <g transform="translate(380.94,128.355)">
   <g transform="matrix(0,1,-1,0,0,0)">
    <g id="breadboard" >
     <rect fill="none" height="0.72" id="connector0pin" width="2.15208" x="3.45096"  y="25.421"/>
     <rect fill="none" height="0.72" id="connector1pin" width="2.15424" x="10.651"  y="25.421"/>
     <g fill="none" id="connector0leg" stroke="#8C8C8C" stroke-linecap="round" stroke-width="2.15136" x1="6.287" x2="6.287"  y1="40.565" y2="74.754"/>
     <g fill="none" id="connector1leg" stroke="#8C8C8C" stroke-linecap="round" stroke-width="2.15136" x1="16.29" x2="16.29"  y1="40.565" y2="74.754"/>
     <rect fill="#8C8C8C" height="9.82728" width="2.15136" x="3.45096"  y="19.3795"/>
     <path d="M12.8045,29.2068c0,-1.1736,-1.06488,-2.1024,-2.088,-2.9916c-0.41616,-0.3672,-1.19952,-1.00152,-1.19952,-1.42488l0,-5.47056l-2.16144,0l0,5.78016c0,1.0584,0.94752,1.87848,1.94616,2.74824c0.44424,0.37584,1.34856,1.24992,1.34856,1.76976" fill="#8C8C8C" />
     <g id="g12" >
      <path d="M14.1732,13.001L14.1732,7.0884C14.1732,3.1752,11.0052,0,7.08768,0C3.1752,0,0,3.16944,0,7.0884l0,13.649c1.47384,1.65096,4.0968,2.75256,7.08768,2.75256c4.61952,0,8.36856,-2.61792,8.36856,-5.85936l0,-1.52352C15.4555,14.9645,14.9818,13.9032,14.1732,13.001z" fill="#e60000" id="color_path14" opacity="0.3" />
      <path d="M14.1732,13.001L14.1732,7.0884C14.1732,3.1752,11.0052,0,7.08768,0C3.1752,0,0,3.16944,0,7.0884l0,13.649c1.47384,1.65096,4.0968,2.75256,7.08768,2.75256c4.61952,0,8.36856,-2.61792,8.36856,-5.85936l0,-1.52352C15.4555,14.9645,14.9818,13.9032,14.1732,13.001z" fill="#E6E6E6" id="path16" opacity="0.5" />
      <path d="M14.1732,13.001l0,3.10536c0,2.73888,-3.16584,4.96512,-7.08552,4.96512C3.1752,21.0715,0,18.8525,0,16.1064l0,3.10536L0,20.736c1.47384,1.65168,4.0968,2.75256,7.08768,2.75256c4.61952,0,8.36856,-2.61792,8.36856,-5.85864L15.4562,16.1064C15.4555,14.9645,14.9818,13.9032,14.1732,13.001z" fill="#D1D1D1" id="path18" opacity="0.9" />
      <path d="M14.1732,13.001l0,3.10536c0,2.73888,-3.16584,4.96512,-7.08552,4.96512C3.1752,21.0715,0,18.8525,0,16.1064l0,3.10536L0,20.736c1.47384,1.65168,4.0968,2.75256,7.08768,2.75256c4.61952,0,8.36856,-2.61792,8.36856,-5.85864L15.4562,16.1064C15.4555,14.9645,14.9818,13.9032,14.1732,13.001z" fill="#e60000" id="color_path20" opacity="0.7" />
      <path d="M14.1732,13.001l0,3.10536c0,2.73888,-3.16584,4.96512,-7.08552,4.96512C3.1752,21.0715,0,18.8525,0,16.1064l0,3.10536c1.47384,1.65024,4.0968,2.75256,7.08768,2.75256c4.61952,0,8.36856,-2.61792,8.36856,-5.85864C15.4555,14.9645,14.9818,13.9032,14.1732,13.001z" fill="#e60000" id="color_path22" opacity="0.25" />
      <ellipse cx="7.08768" cy="16.1064" fill="#E6E6E6" id="ellipse24" opacity="0.25" rx="7.08696" ry="4.9608" />
      <ellipse cx="7.08768" cy="16.1064" fill="#e60000" id="color_ellipse26" opacity="0.25" rx="7.08696" ry="4.9608" />
      <polygon fill="#666666" id="polygon28" points="2.2032,9.648,2.2032,16.1071,3.19608,16.1071,3.19608,13.0946,6.0156,13.0946,10.0123,8.80488,3.40704,8.80488" />
      <polygon fill="#666666" id="polygon30" points="10.7784,8.52408,11.2147,9.03384,7.41168,13.0946,11.0599,13.0946,11.0599,16.1071,11.9736,16.1071,11.9736,8.52408" />
      <path d="M14.1732,13.001L14.1732,7.0884C14.1732,3.1752,11.0052,0,7.08768,0C3.1752,0,0,3.16944,0,7.0884l0,13.649c1.47384,1.65096,4.0968,2.75256,7.08768,2.75256c4.61952,0,8.36856,-2.61792,8.36856,-5.85936l0,-1.52352C15.4555,14.9645,14.9818,13.9032,14.1732,13.001z" fill="#e60000" id="color_path32" opacity="0.65" />
      <path d="M10.3882,3.75408l1.4364,-0.2736c-0.84168,-1.13184,-2.08224,-1.95768,-3.54168,-2.23848l0.25416,1.08072C9.30096,2.59344,9.94392,3.1032,10.3882,3.75408z" fill="#FFFFFF" id="path34" opacity="0.5" />
      <path d="M0.76824,19.926l0,1.51992c0.64872,0.5292,1.43352,0.97632,2.3076,1.31688l0,-1.52496C2.19744,20.9016,1.41912,20.4559,0.76824,19.926z" fill="#FFFFFF" id="path36" opacity="0.5" />
      <path d="M11.0729,20.2097c-0.2556,0.1224,-0.52992,0.22968,-0.80568,0.32976c-0.05832,0.01944,-0.11736,0.04032,-0.17784,0.05832c-0.56376,0.17928,-1.16136,0.31896,-1.79496,0.39456c-0.07488,0.00936,-0.1512,0.01872,-0.22464,0.01944c-0.3204,0.03024,-0.64368,0.05832,-0.97056,0.05832c-0.14832,0,-0.30744,-0.01512,-0.4716,-0.02376c-1.20024,-0.05688,-2.33064,-0.31464,-3.2976,-0.73944L3.33,11.9174L3.33,7.092c0,-1.47096,0.84816,-2.72952,2.0736,-3.34944L5.38128,3.68928l-1.24776,-1.512c-1.66968,1.00296,-2.79,2.8224,-2.79,4.91184l0,11.9052c-0.04968,-0.04968,-0.30816,-0.30888,-0.48024,-0.52992l-0.30744,0.6876c1.40112,1.48176,3.8088,2.46168,6.54264,2.46168c1.67976,0,3.23712,-0.37368,4.51152,-1.00224l-0.52704,-0.40896C11.0729,20.2097,11.0729,20.2097,11.0729,20.2097z" fill="#FFFFFF" id="path38" opacity="0.5" />
     </g>
    </g>
   </g>
  </g>
 </g>
 <path d="M351.733,132.881L327.117,132.881" fill="none" opacity="1" stroke="#8c8c8c" stroke-linecap="round" stroke-linejoin="round" stroke-width="2.15136"/>
 <path d="M331.117,132.881L327.117,132.881" fill="none" opacity="0.2" stroke="#00ff00" stroke-linecap="round" stroke-linejoin="round" stroke-width="2.15136"/>
 <path d="M351.733,140.083L327.117,140.083" fill="none" opacity="1" stroke="#8c8c8c" stroke-linecap="round" stroke-linejoin="round" stroke-width="2.15136"/>
 <path d="M331.117,140.083L327.117,140.083" fill="none" opacity="0.2" stroke="#00ff00" stroke-linecap="round" stroke-linejoin="round" stroke-width="2.15136"/>
 <g partID="62950">
  <g transform="translate(108.435,184.961)">
   <g transform="matrix(0,-1,1,0,0,0)">
    <g id="breadboard" >
     <rect fill="none" height="0.999998" id="connector0pin" width="1" x="0.284"  y="4.28399"/>
     <rect fill="none" height="0.999998" id="connector1pin" width="1" x="21.885"  y="4.28399"/>
     <g fill="none" id="connector0leg" stroke="#8C8C8C" stroke-linecap="round" stroke-width="2.1" x1="1.05" x2="1.05"  y1="5.42" y2="9.882"/>
     <g fill="none" id="connector1leg" stroke="#8C8C8C" stroke-linecap="round" stroke-width="2.1" x1="23.278" x2="23.278"  y1="5.42" y2="9.882"/>
     <g >
      <path d="M23.278,5.41999L1.05,5.41999" fill="none" stroke="#8C8C8C" stroke-linecap="round" stroke-width="2.1" />
      <path d="M4.864,5.46499c0,2.178,0.959,4.12699,2.473,5.46699l9.655,0c1.517,-1.338,2.477,-3.28599,2.477,-5.46699c0,-2.177,-0.96,-4.12599,-2.477,-5.46499L7.336,-8.88176e-16C5.823,1.337,4.864,3.28699,4.864,5.46499z" />
      <rect height="10.932" width="9.656" x="7.336"  y="0"/>
      <path d="M17.009,10.306c0,0,-2.349,0.228999,-4.845,0.228999S7.32,10.306,7.32,10.306S7.096,7.96198,7.096,5.46499c0,-2.49599,0.225,-4.84399,0.225,-4.84399s2.348,-0.228999,4.844,-0.228999c2.495,0,4.844,0.228999,4.844,0.228999s0.228,2.34799,0.228,4.84399C17.232,7.96198,17.009,10.306,17.009,10.306z" fill="#CCCCCC" />
      <path d="M16.482,1.36l-0.031,-0.182l-0.184,-0.0309999c-0.021,-0.00299999,-1.979,-0.311999,-4.104,-0.311999c-1.109,0,-2.163,0.0869998,-2.851,0.146c-0.691,0.0739998,-1.05,0.114,-1.244,0.164c-0.057,0,-0.105,0.021,-0.145,0.0619999C7.861,1.235,7.848,1.288,7.846,1.35C7.786,1.538,7.738,1.9,7.667,2.61299C7.614,3.14899,7.525,4.23999,7.525,5.46999c0,2.136,0.32,4.08799,0.323,4.10499l0.031,0.181l0.181,0.0299999C8.079,9.78998,10.031,10.1,12.165,10.1c2.138,0,4.086,-0.311999,4.104,-0.311999l0.184,-0.0299999l0.029,-0.181c0.004,-0.021,0.32,-1.979,0.32,-4.10499S16.484,1.379,16.482,1.36zM8.326,9.30298c-0.077,-0.523999,-0.29,-2.118,-0.29,-3.83799c0,-1.8,0.188,-3.38199,0.271,-3.83899C8.49,1.599,8.834,1.552,9.271,1.505C9.264,1.548,9.253,1.583,9.253,1.63c0,0.305999,0.188,0.820998,0.21,0.878998C9.508,2.62799,9.63,2.69799,9.755,2.67099c0.012,-0.002,1.157,-0.234999,2.41,-0.234999c1.188,0,2.271,0.209,2.39,0.229999c0.002,0.00499999,0.012,0.02,0.012,0.0609999c0,0.104,-0.049,0.270999,-0.103,0.415999c-0.282,-0.0489999,-0.815,-0.125,-1.434,-0.125c-0.887,0,-1.736,0.158,-1.771,0.165c-0.075,0.021,-0.138,0.0619999,-0.176,0.126c-0.017,0.0299999,-0.103,0.196,-0.103,0.520999c0,0.270999,0.071,0.645999,0.074,0.675999c0.013,0.0619999,0.051,0.127,0.107,0.165c0.057,0.0389999,0.127,0.0519999,0.195,0.0389999c0.003,0,0.389,-0.0749998,0.809,-0.0749998c0.26,0,0.495,0.0279999,0.646,0.0499999c0.021,0.0649999,0.021,0.147,0.021,0.240999c0,0.103,-0.012,0.204,-0.023,0.289999l-0.645,0l-0.858,0c-0.119,0,-0.222,0.0809998,-0.25,0.195c-0.003,0.012,-0.076,0.309999,-0.076,0.603999c0,0.300999,0.075,0.523999,0.082,0.550999c0.03,0.0859998,0.104,0.151,0.194,0.169c0.018,0.00299999,0.436,0.0839998,0.908,0.0839998c0.247,0,0.476,-0.02,0.645,-0.0439999c0.021,0.105,0.025,0.228999,0.025,0.334999c0,0.0739998,-0.009,0.119,-0.016,0.163c-0.28,0.0439999,-0.896,0.129,-1.521,0.129c-0.833,0,-1.535,-0.146,-1.542,-0.146c-0.1,-0.021,-0.2,0.016,-0.26,0.0969998C9.475,7.37698,9.264,7.66598,9.264,8.00998c0,0.344999,0.211,0.629999,0.236,0.660999C9.538,8.71998,9.592,8.75398,9.652,8.76698c0.048,0.012,1.207,0.245999,2.513,0.245999c0.985,0,1.885,-0.134,2.29,-0.203c0.054,0.177,0.105,0.383999,0.105,0.494999c0,0.0829998,-0.029,0.139,-0.062,0.179c-0.676,0.0619999,-1.486,0.113,-2.339,0.113C10.445,9.59298,8.85,9.38098,8.326,9.30298zM16.002,9.30298c-0.189,0.0279999,-0.521,0.0749998,-0.941,0.12c0.006,-0.0409999,0.021,-0.0749998,0.021,-0.123c0,-0.303999,-0.188,-0.819998,-0.211,-0.876998c-0.044,-0.12,-0.167,-0.189,-0.292,-0.163c-0.017,0.002,-1.158,0.234999,-2.41,0.234999c-1.042,0,-2.001,-0.16,-2.303,-0.215C9.825,8.20798,9.782,8.09998,9.782,8.00598c0,-0.0759998,0.026,-0.156,0.056,-0.225c0.275,0.0479999,0.826,0.132,1.465,0.132c0.886,0,1.736,-0.159,1.771,-0.165c0.07,-0.021,0.139,-0.0619999,0.176,-0.128c0.02,-0.0299999,0.104,-0.194,0.104,-0.520999c0,-0.286999,-0.062,-0.659999,-0.062,-0.674999c-0.021,-0.0659999,-0.062,-0.126,-0.104,-0.162c-0.062,-0.0389999,-0.129,-0.0529999,-0.188,-0.0409999C12.975,6.22599,12.586,6.29999,12.17,6.29999c-0.261,0,-0.496,-0.0279999,-0.647,-0.0489999c-0.012,-0.0659999,-0.022,-0.146,-0.022,-0.239999c0,-0.104,0.012,-0.204,0.025,-0.290999l0.644,0l0.855,0c0.119,0,0.226,-0.0819998,0.252,-0.196c0.002,-0.013,0.074,-0.311999,0.074,-0.603999c0,-0.301999,-0.074,-0.523999,-0.082,-0.551999C13.24,4.26999,13.165,4.21799,13.078,4.19999c-0.02,-0.021,-0.437,-0.103,-0.909,-0.103c-0.248,0,-0.475,0.022,-0.645,0.0619999c-0.014,-0.106,-0.026,-0.228999,-0.026,-0.352999c0,-0.0619999,0.009,-0.104,0.015,-0.146c0.28,-0.0439999,0.896,-0.146,1.521,-0.146c0.829,0,1.532,0.153,1.541,0.154c0.118,0.0259999,0.239,-0.0349999,0.288,-0.146c0.021,-0.0599999,0.219,-0.491999,0.219,-0.811998c0,-0.375999,-0.264,-0.529999,-0.398,-0.561999c-0.05,-0.021,-1.207,-0.240999,-2.515,-0.240999c-0.985,0,-1.884,0.136,-2.291,0.2c-0.055,-0.188,-0.11,-0.391999,-0.11,-0.491999c0,-0.0809998,0.031,-0.146,0.06,-0.187c0.681,-0.0619999,1.498,-0.104,2.339,-0.104c1.72,0,3.312,0.212,3.838,0.285999c0.076,0.520999,0.289,2.115,0.289,3.83999C16.289,7.18398,16.08,8.77798,16.002,9.30298z" fill="#8F0000" />
      <circle cx="6.433" cy="5.46599" fill="#8C8C8C" r="1.379" />
      <circle cx="17.895" cy="5.46499" fill="#8C8C8C" r="1.379" />
      <path d="M16.992,0L7.336,0C5.823,1.337,4.864,3.28699,4.864,5.46499s0.959,4.12699,2.473,5.46699l9.655,0c1.517,-1.338,2.477,-3.28599,2.477,-5.46699C19.466,3.28699,18.507,1.337,16.992,0zM11.868,9.66098c-2.485,0,-4.5,-2.021,-4.5,-4.49999c0,-2.48499,2.015,-4.50099,4.5,-4.50099c2.483,0,4.501,2.016,4.501,4.50099C16.369,7.64498,14.354,9.66098,11.868,9.66098z" opacity="0.2" />
      <circle cx="10.357" cy="3.39799" fill="#FFFFFF" opacity="0.8" r="1.17" />
     </g>
    </g>
   </g>
  </g>
 </g>
 <path d="M113.855,183.911L118.317,183.911" fill="none" opacity="1" stroke="#8c8c8c" stroke-linecap="round" stroke-linejoin="round" stroke-width="2.1"/>
 <path d="M114.317,183.911L118.317,183.911" fill="none" opacity="0.2" stroke="#00ff00" stroke-linecap="round" stroke-linejoin="round" stroke-width="2.1"/>
 <path d="M113.855,161.683L118.317,161.683" fill="none" opacity="1" stroke="#8c8c8c" stroke-linecap="round" stroke-linejoin="round" stroke-width="2.1"/>
 <path d="M114.317,161.683L118.317,161.683" fill="none" opacity="0.2" stroke="#00ff00" stroke-linecap="round" stroke-linejoin="round" stroke-width="2.1"/>
 <g partID="64120">
  <g transform="translate(121.885,162.736)">
   <g transform="matrix(0,-1,1,0,0,0)">
    <g id="breadboard" >
     <rect fill="none" height="0.72" id="connector0pin" width="0.72" x="0.36"  y="2.5848"/>
     <rect fill="none" height="0.72" id="connector1pin" width="0.72" x="29.8202"  y="2.5848"/>
     <line fill="none" id="connector0leg" stroke="#8C8C8C" stroke-linecap="round" stroke-width="2.0952" x1="1.0476" x2="2.0952"  y1="3.6324" y2="3.6324"/>
     <line fill="none" id="connector1leg" stroke="#8C8C8C" stroke-linecap="round" stroke-width="2.0952" x1="29.8526" x2="28.805"  y1="3.6324" y2="3.6324"/>
     <path d="M1.0476,3.6324l28.3666,0" fill="none" stroke="#8C8C8C" stroke-width="2.0952" />
     <path d="M10.2478,0.49536c-0.36,-0.1656,-0.9792,-0.2952,-1.3752,-0.2952l-1.9872,0c-0.396,0,-0.72,0.324,-0.72,0.72l0,5.35608c0,0.39672,0.324,0.72,0.72,0.72l1.9872,0c0.396,0,1.0152,-0.13608,1.3752,-0.2952l0.072,-0.03528c0.36,-0.1656,0.9792,-0.2952,1.3752,-0.2952l7.1856,0c0.39672,0,1.01448,0.13608,1.37448,0.2952l0.07272,0.03528c0.36,0.1656,0.97776,0.2952,1.3752,0.2952l1.9872,0c0.39744,0,0.72,-0.32328,0.72,-0.72L24.4102,0.92016c0,-0.396,-0.32256,-0.72,-0.72,-0.72l-1.9872,0c-0.39744,0,-1.0152,0.1368,-1.3752,0.2952l-0.07272,0.036c-0.36,0.1656,-0.97776,0.2952,-1.37448,0.2952l-7.1856,0c-0.396,0,-1.0152,-0.1368,-1.3752,-0.2952L10.2478,0.49536z" fill="#D9B477" id="body" />
     <rect fill="#ad9f4e" height="6.79536" id="gold_band" width="0.70272" x="22.019"  y="0.19368"/>
     <rect fill="#c40808" height="5.5368" id="band_rd_multiplier" width="1.8504" x="16.1726"  y="0.82656"/>
     <rect fill="#c40808" height="5.5368" id="band_2_nd" width="1.8504" x="12.4726"  y="0.82656"/>
     <path d="M10.6286,0.63936c-0.1152,-0.036,-0.2232,-0.072,-0.3096,-0.1152l-0.072,-0.036c-0.36,-0.16488,-0.9792,-0.2952,-1.3752,-0.2952l-0.0864,0l0,6.79608l0.0864,0c0.396,0,1.0152,-0.13608,1.3752,-0.2952l0.072,-0.03528c0.0864,-0.04464,0.1944,-0.07992,0.3096,-0.1152L10.6286,0.63936z" fill="#8c8c8c" id="band_1_st" />
     <path d="M23.711,4.0896L23.711,4.0896c0,0.37944,-0.13032,0.69912,-0.2952,0.69912l-1.9224,0c-0.38016,0,-0.97776,-0.05616,-1.33272,-0.1224L20.088,4.65048c-0.34488,-0.0648,-0.94896,-0.1224,-1.33344,-0.1224L11.808,4.52808c-0.3816,0,-0.9792,0.0576,-1.332,0.1224l-0.072,0.01512c-0.3456,0.06552,-0.9432,0.1224,-1.332,0.1224l-0.3168,0l-1.0008,0l-0.3096,0c-0.3816,0,-0.6984,0.29376,-0.6984,0.64512l0,0.24696L6.7464,5.8392l0,0.1728c0,0.36,0.3168,0.64512,0.6984,0.64512l1.62,0c0.3816,0,0.9792,-0.1224,1.332,-0.26712l0.072,-0.02808c0.3456,-0.14112,0.9504,-0.26496,1.332,-0.26496l6.94656,0c0.37944,0,0.97704,0.12384,1.33416,0.26568l0.07416,0.02808c0.34488,0.14472,0.94464,0.26712,1.33344,0.26712l2.2248,0c0.38088,0,0.69912,-0.2952,0.69912,-0.64512L24.413,5.472L24.413,4.49928L24.413,2.65536C24.1358,2.76336,23.711,3.06576,23.711,4.0896z" id="Shadow" opacity="0.3" />
     <rect height="3.15288" id="ShadowExtra" opacity="0.4" width="0.70272" x="22.019"  y="3.48336"/>
     <path d="M19.751,1.08576c0.22968,0,0.49104,-0.1008,0.6624,-0.1728c0.2016,-0.0792,0.57672,-0.144,0.96624,-0.144l1.46088,0c0.22464,0,0.22464,0.2448,0.22464,0.3744c0,0.1296,-0.01512,0.3816,-0.22464,0.3816l-3.06,0c-0.10728,0,-0.2304,-0.1152,-0.2304,-0.22392C19.5566,1.21536,19.6286,1.08576,19.751,1.08576z" fill="#FFFFFF" id="ReflexRight" opacity="0.25" />
     <circle cx="6.99984" cy="1.13616" fill="#FFFFFF" id="ReflexLeft" opacity="0.35" r="0.432" />
     <rect fill="#FFFF33" height="1.62" id="Reflex_gold" opacity="0.5" width="0.70272" x="22.019"  y="0.42336"/>
     <rect fill="#FFFFFF" height="0.7488" id="Reflex_extra" opacity="0.5" width="0.70272" x="22.019"  y="0.78336"/>
    </g>
   </g>
  </g>
 </g>
 <path d="M125.517,160.641L125.517,161.689" fill="none" opacity="1" stroke="#8c8c8c" stroke-linecap="round" stroke-linejoin="round" stroke-width="2.0952"/>
 <path d="M125.517,160.641L125.517,161.689" fill="none" opacity="0.2" stroke="#00ff00" stroke-linecap="round" stroke-linejoin="round" stroke-width="2.0952"/>
 <path d="M125.517,133.931L125.517,132.884" fill="none" opacity="1" stroke="#8c8c8c" stroke-linecap="round" stroke-linejoin="round" stroke-width="2.0952"/>
 <path d="M125.517,133.931L125.517,132.884" fill="none" opacity="0.2" stroke="#00ff00" stroke-linecap="round" stroke-linejoin="round" stroke-width="2.0952"/>
 <g partID="64800">
  <line stroke="#8c0000" stroke-linecap="round" stroke-width="3.2" x1="254.988" x2="254.988" y1="183.147" y2="132.74"/>
  <line stroke="#cc1414" stroke-linecap="round" stroke-width="1.6" x1="254.988" x2="254.988" y1="183.147" y2="132.74"/>
 </g>
 <g partID="64740">
  <line stroke="#8c0000" stroke-linecap="round" stroke-width="3.2" x1="254.988" x2="233.517" y1="132.74" y2="132.939"/>
  <line stroke="#cc1414" stroke-linecap="round" stroke-width="1.6" x1="254.988" x2="233.517" y1="132.74" y2="132.939"/>
 </g>
 <g partID="64220">
  <line stroke="#8c0000" stroke-linecap="round" stroke-width="3.2" x1="118.317" x2="254.988" y1="183.911" y2="183.147"/>
  <line stroke="#cc1414" stroke-linecap="round" stroke-width="1.6" x1="118.317" x2="254.988" y1="183.911" y2="183.147"/>
 </g>
 <g partID="64860">
  <line stroke="#1b5bb3" stroke-linecap="round" stroke-width="3.2" x1="118.437" x2="161.474" y1="68.038" y2="68.0394"/>
  <line stroke="#418dd9" stroke-linecap="round" stroke-width="1.6" x1="118.437" x2="161.474" y1="68.038" y2="68.0394"/>
 </g>
 <g partID="64670">
  <line stroke="#1b5bb3" stroke-linecap="round" stroke-width="3.2" x1="118.317" x2="118.437" y1="161.683" y2="68.038"/>
  <line stroke="#418dd9" stroke-linecap="round" stroke-width="1.6" x1="118.317" x2="118.437" y1="161.683" y2="68.038"/>
 </g>
 <g partID="64920">
  <line stroke="#1b5bb3" stroke-linecap="round" stroke-width="3.2" x1="125.517" x2="118.317" y1="161.689" y2="161.683"/>
  <line stroke="#418dd9" stroke-linecap="round" stroke-width="1.6" x1="125.517" x2="118.317" y1="161.689" y2="161.683"/>
 </g>
 <g partID="65140">
  <line stroke="#000000" stroke-linecap="round" stroke-width="3.2" x1="125.584" x2="161.474" y1="125.592" y2="125.654"/>
  <line stroke="#404040" stroke-linecap="round" stroke-width="1.6" x1="125.584" x2="161.474" y1="125.592" y2="125.654"/>
 </g>
 <g partID="65070">
  <line stroke="#000000" stroke-linecap="round" stroke-width="3.2" x1="125.517" x2="125.584" y1="132.884" y2="125.592"/>
  <line stroke="#404040" stroke-linecap="round" stroke-width="1.6" x1="125.517" x2="125.584" y1="132.884" y2="125.592"/>
 </g>
 <g partID="65410">
  <line stroke="#8c0000" stroke-linecap="round" stroke-width="3.2" x1="276.806" x2="276.806" y1="132.74" y2="53.7437"/>
  <line stroke="#cc1414" stroke-linecap="round" stroke-width="1.6" x1="276.806" x2="276.806" y1="132.74" y2="53.7437"/>
 </g>
 <g partID="65310">
  <line stroke="#8c0000" stroke-linecap="round" stroke-width="3.2" x1="276.806" x2="283.917" y1="53.7433" y2="53.6624"/>
  <line stroke="#cc1414" stroke-linecap="round" stroke-width="1.6" x1="276.806" x2="283.917" y1="53.7433" y2="53.6624"/>
 </g>
 <g partID="65200">
  <line stroke="#8c0000" stroke-linecap="round" stroke-width="3.2" x1="233.517" x2="276.806" y1="132.939" y2="132.74"/>
  <line stroke="#cc1414" stroke-linecap="round" stroke-width="1.6" x1="233.517" x2="276.806" y1="132.939" y2="132.74"/>
 </g>
 <g partID="65720">
  <line stroke="#000000" stroke-linecap="round" stroke-width="3.2" x1="269.659" x2="269.659" y1="125.592" y2="46.5957"/>
  <line stroke="#404040" stroke-linecap="round" stroke-width="1.6" x1="269.659" x2="269.659" y1="125.592" y2="46.5957"/>
 </g>
 <g partID="65620">
  <line stroke="#000000" stroke-linecap="round" stroke-width="3.2" x1="269.659" x2="283.917" y1="46.596" y2="46.4624"/>
  <line stroke="#404040" stroke-linecap="round" stroke-width="1.6" x1="269.659" x2="283.917" y1="46.596" y2="46.4624"/>
 </g>
 <g partID="65510">
  <line stroke="#000000" stroke-linecap="round" stroke-width="3.2" x1="233.517" x2="269.659" y1="125.732" y2="125.593"/>
  <line stroke="#404040" stroke-linecap="round" stroke-width="1.6" x1="233.517" x2="269.659" y1="125.732" y2="125.593"/>
 </g>
 <g partID="66010">
  <line stroke="#d6d63a" stroke-linecap="round" stroke-width="3.2" x1="154.418" x2="283.791" y1="3.20611" y2="3.20611"/>
  <line stroke="#fff800" stroke-linecap="round" stroke-width="1.6" x1="154.418" x2="283.791" y1="3.20611" y2="3.20611"/>
 </g>
 <g partID="65950">
  <line stroke="#d6d63a" stroke-linecap="round" stroke-width="3.2" x1="154.418" x2="154.418" y1="53.7428" y2="3.20611"/>
  <line stroke="#fff800" stroke-linecap="round" stroke-width="1.6" x1="154.418" x2="154.418" y1="53.7428" y2="3.20611"/>
 </g>
 <g partID="65890">
  <line stroke="#d6d63a" stroke-linecap="round" stroke-width="3.2" x1="283.791" x2="283.917" y1="3.20611" y2="39.2834"/>
  <line stroke="#fff800" stroke-linecap="round" stroke-width="1.6" x1="283.791" x2="283.917" y1="3.20611" y2="39.2834"/>
 </g>
 <g partID="65820">
  <line stroke="#d6d63a" stroke-linecap="round" stroke-width="3.2" x1="161.474" x2="154.418" y1="53.6376" y2="53.7428"/>
  <line stroke="#fff800" stroke-linecap="round" stroke-width="1.6" x1="161.474" x2="154.418" y1="53.6376" y2="53.7428"/>
 </g>
 <g partID="66470">
  <line stroke="#000000" stroke-linecap="round" stroke-width="3.2" x1="291.069" x2="233.517" y1="125.707" y2="125.732"/>
  <line stroke="#404040" stroke-linecap="round" stroke-width="1.6" x1="291.069" x2="233.517" y1="125.707" y2="125.732"/>
 </g>
 <g partID="66330">
  <line stroke="#000000" stroke-linecap="round" stroke-width="3.2" x1="312.901" x2="291.069" y1="132.984" y2="125.707"/>
  <line stroke="#404040" stroke-linecap="round" stroke-width="1.6" x1="312.901" x2="291.069" y1="132.984" y2="125.707"/>
 </g>
 <g partID="66070">
  <line stroke="#000000" stroke-linecap="round" stroke-width="3.2" x1="327.117" x2="312.901" y1="132.881" y2="132.984"/>
  <line stroke="#404040" stroke-linecap="round" stroke-width="1.6" x1="327.117" x2="312.901" y1="132.881" y2="132.984"/>
 </g>
 <g partID="67170">
  <line stroke="#dc00dc" stroke-linecap="round" stroke-width="3.2" x1="247.81" x2="233.517" y1="75.1704" y2="75.2763"/>
  <line stroke="#fa50e6" stroke-linecap="round" stroke-width="1.6" x1="247.81" x2="233.517" y1="75.1704" y2="75.2763"/>
 </g>
 <g partID="66610">
  <line stroke="#dc00dc" stroke-linecap="round" stroke-width="3.2" x1="298.347" x2="247.81" y1="140.262" y2="75.1706"/>
  <line stroke="#fa50e6" stroke-linecap="round" stroke-width="1.6" x1="298.347" x2="247.81" y1="140.262" y2="75.1706"/>
 </g>
 <g partID="66260">
  <line stroke="#dc00dc" stroke-linecap="round" stroke-width="3.2" x1="327.117" x2="298.347" y1="140.083" y2="140.262"/>
  <line stroke="#fa50e6" stroke-linecap="round" stroke-width="1.6" x1="327.117" x2="298.347" y1="140.083" y2="140.262"/>
 </g>
 <g partID="67350">
  <line stroke="#000000" stroke-linecap="round" stroke-width="3.2" x1="291.069" x2="352.532" y1="111.152" y2="113.464"/>
  <line stroke="#404040" stroke-linecap="round" stroke-width="1.6" x1="291.069" x2="352.532" y1="111.152" y2="113.464"/>
 </g>
 <g partID="66860">
  <line stroke="#000000" stroke-linecap="round" stroke-width="3.2" x1="291.069" x2="291.069" y1="125.707" y2="111.152"/>
  <line stroke="#404040" stroke-linecap="round" stroke-width="1.6" x1="291.069" x2="291.069" y1="125.707" y2="111.152"/>
 </g>
 <g partID="66670">
  <line stroke="#000000" stroke-linecap="round" stroke-width="3.2" x1="233.517" x2="291.069" y1="125.732" y2="125.707"/>
  <line stroke="#404040" stroke-linecap="round" stroke-width="1.6" x1="233.517" x2="291.069" y1="125.732" y2="125.707"/>
 </g>
 <g partID="67290">
  <line stroke="#00a527" stroke-linecap="round" stroke-width="3.2" x1="283.791" x2="341.605" y1="89.7249" y2="89.7249"/>
  <line stroke="#25cc35" stroke-linecap="round" stroke-width="1.6" x1="283.791" x2="341.605" y1="89.7249" y2="89.7249"/>
 </g>
 <g partID="67230">
  <line stroke="#00a527" stroke-linecap="round" stroke-width="3.2" x1="247.81" x2="283.792" y1="67.8931" y2="89.7249"/>
  <line stroke="#25cc35" stroke-linecap="round" stroke-width="1.6" x1="247.81" x2="283.792" y1="67.8931" y2="89.7249"/>
 </g>
 <g partID="67110">
  <line stroke="#00a527" stroke-linecap="round" stroke-width="3.2" x1="341.606" x2="352.532" y1="89.7249" y2="91.8884"/>
  <line stroke="#25cc35" stroke-linecap="round" stroke-width="1.6" x1="341.606" x2="352.532" y1="89.7249" y2="91.8884"/>
 </g>
 <g partID="67040">
  <line stroke="#00a527" stroke-linecap="round" stroke-width="3.2" x1="233.517" x2="247.81" y1="68.0672" y2="67.8931"/>
  <line stroke="#25cc35" stroke-linecap="round" stroke-width="1.6" x1="233.517" x2="247.81" y1="68.0672" y2="67.8931"/>
 </g>
 <g partID="67530">
  <line stroke="#8c0000" stroke-linecap="round" stroke-width="3.2" x1="161.474" x2="75.1169" y1="132.854" y2="125.684"/>
  <line stroke="#cc1414" stroke-linecap="round" stroke-width="1.6" x1="161.474" x2="75.1169" y1="132.854" y2="125.684"/>
 </g>
 <g partID="69070">
  <line stroke="#000000" stroke-linecap="round" stroke-width="3.2" x1="125.713" x2="111.117" y1="125.707" y2="118.483"/>
  <line stroke="#404040" stroke-linecap="round" stroke-width="1.6" x1="125.713" x2="111.117" y1="125.707" y2="118.483"/>
 </g>
 <g partID="68810">
  <line stroke="#000000" stroke-linecap="round" stroke-width="3.2" x1="111.117" x2="75.1169" y1="118.483" y2="118.483"/>
  <line stroke="#404040" stroke-linecap="round" stroke-width="1.6" x1="111.117" x2="75.1169" y1="118.483" y2="118.483"/>
 </g>
 <g partID="67600">
  <line stroke="#000000" stroke-linecap="round" stroke-width="3.2" x1="161.474" x2="125.713" y1="125.654" y2="125.707"/>
  <line stroke="#404040" stroke-linecap="round" stroke-width="1.6" x1="161.474" x2="125.713" y1="125.654" y2="125.707"/>
 </g>
 <g partID="68360">
  <line stroke="#000000" stroke-linecap="round" stroke-width="3.2" x1="96.6039" x2="96.6039" y1="118.43" y2="104.28"/>
  <line stroke="#404040" stroke-linecap="round" stroke-width="1.6" x1="96.6039" x2="96.6039" y1="118.43" y2="104.28"/>
 </g>
 <g partID="68100">
  <line stroke="#000000" stroke-linecap="round" stroke-width="3.2" x1="96.6039" x2="75.1169" y1="104.279" y2="104.083"/>
  <line stroke="#404040" stroke-linecap="round" stroke-width="1.6" x1="96.6039" x2="75.1169" y1="104.279" y2="104.083"/>
 </g>
 <g partID="67830">
  <line stroke="#000000" stroke-linecap="round" stroke-width="3.2" x1="75.1169" x2="96.6039" y1="118.483" y2="118.43"/>
  <line stroke="#404040" stroke-linecap="round" stroke-width="1.6" x1="75.1169" x2="96.6039" y1="118.483" y2="118.43"/>
 </g>
 <g partID="68750">
  <line stroke="#666666" stroke-linecap="round" stroke-width="3.2" x1="103.881" x2="103.881" y1="61.02" y2="111.152"/>
  <line stroke="#999999" stroke-linecap="round" stroke-width="1.6" x1="103.881" x2="103.881" y1="61.02" y2="111.152"/>
 </g>
 <g partID="68690">
  <line stroke="#666666" stroke-linecap="round" stroke-width="3.2" x1="103.881" x2="75.1169" y1="111.152" y2="111.283"/>
  <line stroke="#999999" stroke-linecap="round" stroke-width="1.6" x1="103.881" x2="75.1169" y1="111.152" y2="111.283"/>
 </g>
 <g partID="68620">
  <line stroke="#666666" stroke-linecap="round" stroke-width="3.2" x1="161.474" x2="103.881" y1="60.838" y2="61.02"/>
  <line stroke="#999999" stroke-linecap="round" stroke-width="1.6" x1="161.474" x2="103.881" y1="60.838" y2="61.02"/>
 </g>
 <g partID="69780">
  <line stroke="#8c0000" stroke-linecap="round" stroke-width="3.2" x1="3.21212" x2="3.21212" y1="183.117" y2="82.4482"/>
  <line stroke="#cc1414" stroke-linecap="round" stroke-width="1.6" x1="3.21212" x2="3.21212" y1="183.117" y2="82.4482"/>
 </g>
 <g partID="69640">
  <line stroke="#8c0000" stroke-linecap="round" stroke-width="3.2" x1="3.21212" x2="82.4536" y1="82.4476" y2="82.4476"/>
  <line stroke="#cc1414" stroke-linecap="round" stroke-width="1.6" x1="3.21212" x2="82.4536" y1="82.4476" y2="82.4476"/>
 </g>
 <g partID="69480">
  <line stroke="#8c0000" stroke-linecap="round" stroke-width="3.2" x1="82.4536" x2="82.3169" y1="82.4476" y2="68.0834"/>
  <line stroke="#cc1414" stroke-linecap="round" stroke-width="1.6" x1="82.4536" x2="82.3169" y1="82.4476" y2="68.0834"/>
 </g>
 <g partID="69330">
  <line stroke="#8c0000" stroke-linecap="round" stroke-width="3.2" x1="118.317" x2="3.21212" y1="183.911" y2="183.117"/>
  <line stroke="#cc1414" stroke-linecap="round" stroke-width="1.6" x1="118.317" x2="3.21212" y1="183.911" y2="183.117"/>
 </g>
 <g partID="71130">
  <line stroke="#000000" stroke-linecap="round" stroke-width="3.2" x1="125.713" x2="125.713" y1="125.707" y2="89.7245"/>
  <line stroke="#404040" stroke-linecap="round" stroke-width="1.6" x1="125.713" x2="125.713" y1="125.707" y2="89.7245"/>
 </g>
 <g partID="70830">
  <line stroke="#000000" stroke-linecap="round" stroke-width="3.2" x1="125.713" x2="89.3265" y1="89.7249" y2="89.7249"/>
  <line stroke="#404040" stroke-linecap="round" stroke-width="1.6" x1="125.713" x2="89.3265" y1="89.7249" y2="89.7249"/>
 </g>
 <g partID="70530">
  <line stroke="#000000" stroke-linecap="round" stroke-width="3.2" x1="89.3266" x2="89.3266" y1="89.7249" y2="53.7428"/>
  <line stroke="#404040" stroke-linecap="round" stroke-width="1.6" x1="89.3266" x2="89.3266" y1="89.7249" y2="53.7428"/>
 </g>
 <g partID="70230">
  <line stroke="#000000" stroke-linecap="round" stroke-width="3.2" x1="89.3266" x2="82.3169" y1="53.7428" y2="53.6834"/>
  <line stroke="#404040" stroke-linecap="round" stroke-width="1.6" x1="89.3266" x2="82.3169" y1="53.7428" y2="53.6834"/>
 </g>
 <g partID="69920">
  <line stroke="#000000" stroke-linecap="round" stroke-width="3.2" x1="161.474" x2="125.713" y1="125.654" y2="125.707"/>
  <line stroke="#404040" stroke-linecap="round" stroke-width="1.6" x1="161.474" x2="125.713" y1="125.654" y2="125.707"/>
 </g>
 <g partID="71770">
  <line stroke="#846521" stroke-linecap="round" stroke-width="3.2" x1="247.81" x2="247.81" y1="61.02" y2="25.038"/>
  <line stroke="#a37911" stroke-linecap="round" stroke-width="1.6" x1="247.81" x2="247.81" y1="61.02" y2="25.038"/>
 </g>
 <g partID="71710">
  <line stroke="#846521" stroke-linecap="round" stroke-width="3.2" x1="247.81" x2="96.6041" y1="25.038" y2="25.038"/>
  <line stroke="#a37911" stroke-linecap="round" stroke-width="1.6" x1="247.81" x2="96.6041" y1="25.038" y2="25.038"/>
 </g>
 <g partID="71650">
  <line stroke="#846521" stroke-linecap="round" stroke-width="3.2" x1="96.6039" x2="96.6039" y1="25.038" y2="61.02"/>
  <line stroke="#a37911" stroke-linecap="round" stroke-width="1.6" x1="96.6039" x2="96.6039" y1="25.038" y2="61.02"/>
 </g>
 <g partID="71590">
  <line stroke="#846521" stroke-linecap="round" stroke-width="3.2" x1="96.6039" x2="82.32" y1="61.02" y2="61.0206"/>
  <line stroke="#a37911" stroke-linecap="round" stroke-width="1.6" x1="96.6039" x2="82.32" y1="61.02" y2="61.0206"/>
 </g>
 <g partID="71430">
  <line stroke="#846521" stroke-linecap="round" stroke-width="3.2" x1="233.517" x2="247.81" y1="60.858" y2="61.02"/>
  <line stroke="#a37911" stroke-linecap="round" stroke-width="1.6" x1="233.517" x2="247.81" y1="60.858" y2="61.02"/>
 </g>
 <g partID="71950">
  <line stroke="#00a0c6" stroke-linecap="round" stroke-width="3.2" x1="262.364" x2="262.364" y1="39.1882" y2="17.7607"/>
  <line stroke="#33ffc5" stroke-linecap="round" stroke-width="1.6" x1="262.364" x2="262.364" y1="39.1882" y2="17.7607"/>
 </g>
 <g partID="71890">
  <line stroke="#00a0c6" stroke-linecap="round" stroke-width="3.2" x1="262.364" x2="82.4537" y1="17.7607" y2="17.7607"/>
  <line stroke="#33ffc5" stroke-linecap="round" stroke-width="1.6" x1="262.364" x2="82.4537" y1="17.7607" y2="17.7607"/>
 </g>
 <g partID="71830">
  <line stroke="#00a0c6" stroke-linecap="round" stroke-width="3.2" x1="82.4536" x2="82.3169" y1="17.7607" y2="46.4834"/>
  <line stroke="#33ffc5" stroke-linecap="round" stroke-width="1.6" x1="82.4536" x2="82.3169" y1="17.7607" y2="46.4834"/>
 </g>
 <g partID="71500">
  <line stroke="#00a0c6" stroke-linecap="round" stroke-width="3.2" x1="233.517" x2="262.364" y1="39.2336" y2="39.1882"/>
  <line stroke="#33ffc5" stroke-linecap="round" stroke-width="1.6" x1="233.517" x2="262.364" y1="39.2336" y2="39.1882"/>
 </g>
</svg>
